<svg width="95" height="69" viewBox="0 0 95 69" fill="none" xmlns="http://www.w3.org/2000/svg">
<g clip-path="url(#clip0_216_10939)">
<path d="M71.0977 0H23.9023C10.7014 0 0 10.653 0 23.7942V45.2058C0 58.347 10.7014 69 23.9023 69H71.0977C84.2986 69 95 58.347 95 45.2058V23.7942C95 10.653 84.2986 0 71.0977 0Z" fill="#154848"/>
<path d="M49 13.3754C48.5916 21.334 33.3876 19.3138 33.3876 19.3138L33.3449 19.2893C32.1744 23.3849 31.9611 27.3092 31.7233 31.4722L33.9058 30.9089C34.6556 30.713 35.314 31.0436 35.4725 31.6558C35.631 32.268 35.2226 32.9108 34.4666 33.1006L31.5648 33.8475C31.3515 37.0432 31.0284 40.4226 30.2176 44.1203C27.9985 53.9646 19.0432 56.542 14.9343 54.185C13.5505 53.3952 14.4771 51.5035 16.05 52.2871C19.0615 53.7748 26.0904 52.3055 27.9924 43.6183C28.6996 40.4104 29.0288 37.3738 29.2361 34.4475L28.2668 34.6985C27.5169 34.8944 26.8524 34.5271 26.6939 33.9149C26.5354 33.3027 26.9561 32.6966 27.7059 32.5068L29.3519 32.0844C29.614 27.7255 29.8274 23.4951 31.0101 19.1668C26.5903 19.0383 17.1046 19.8341 13.3554 28.3132C10.667 34.3679 13.7517 42.1184 19.0188 43.0245C20.9757 43.3612 20.4758 45.6018 18.6408 45.2651C11.3254 43.9673 7.99076 34.7903 11.2522 27.3949C16.9461 14.5875 33.6802 17.0609 33.6802 17.0609C33.6802 17.0609 46.1592 18.7138 46.6712 13.2529C46.7566 12.5428 47.1772 12.0897 47.7686 12.0163C48.4209 11.8877 49.0061 12.5367 48.9939 13.3876L49 13.3754Z" fill="#D9D9D9"/>
<path d="M45.2903 40.7205C44.4697 40.9251 43.579 40.7205 42.8347 40.1686C42.0459 41.105 41.0789 41.8119 40.0419 41.9545C37.5927 42.3328 35.8623 40.2864 36.0086 38.2649L36.5239 32.5102C36.772 30.2779 38.8078 28.1757 40.8753 28.0083C42.9874 27.8656 44.6351 29.5895 44.4442 31.7351L43.9607 36.8634C43.9607 37.9486 44.5714 38.5749 45.2776 38.3951C46.2128 38.1594 46.9507 37.1983 47.0461 35.896C47.2688 34.1721 49.0437 33.9613 48.9992 35.7596C48.6747 38.1718 47.3451 40.212 45.2903 40.7205ZM40.2837 30.1724C39.5139 30.2841 38.8332 31.1584 38.7123 32.0762L38.1271 38.1594C38.0571 39.2632 38.8459 39.995 39.8574 39.9019C40.869 39.8027 41.4733 39.071 41.7087 38.0044L42.3321 31.9087C42.3449 31.363 42.0268 29.85 40.2837 30.1724Z" fill="#D9D9D9"/>
<path d="M61.4597 36.0222C59.5467 36.4824 57.7804 35.1137 57.9334 33.0517L58.3607 27.7502C58.3415 26.5189 57.6337 25.981 56.741 26.1962C55.5805 26.4771 55.0895 27.1525 55.0066 28.7483L54.5411 36.3808C54.4391 37.899 52.3603 38.1799 52.4687 36.5422L52.9597 28.8679C53.0171 27.7681 52.2072 27.29 51.3847 27.4872C50.3006 27.7502 49.8989 28.3299 49.816 29.621L49.1784 37.7794C49.0572 39.2318 46.8955 39.4888 47.0039 38.0006L47.8329 27.027C47.8903 26.0767 49.0445 25.7659 49.5737 26.2321C50.103 25.8436 50.6769 25.5925 51.3528 25.4311C52.3284 25.198 53.2913 25.3774 53.9991 25.9153C54.6941 24.959 55.6123 24.3673 56.6964 24.1043C58.9409 23.5663 60.4649 25.1801 60.4139 27.3258L59.9994 32.5138C59.9038 33.4701 60.2354 34.4025 61.2875 34.1515C62.1484 33.9423 62.8434 32.8425 63.0092 31.683C63.2132 30.2485 65.0561 30.2545 64.9987 31.5037C64.8903 33.739 63.3918 35.556 61.4852 36.0162L61.4597 36.0222Z" fill="#D9D9D9"/>
<path d="M63.4978 23.1777C63.6029 21.5013 65.4231 21.2886 65.3401 22.915L64.8809 31.4285C64.8367 32.3042 65.1741 32.8734 65.8159 32.8046C66.5572 32.7046 66.9002 32.0978 67.2654 30.5027C67.6692 28.7825 69.1242 29.3767 68.9915 30.4714C68.6706 33.0298 67.7467 34.5937 65.9597 34.9565C64.3664 35.263 62.8561 33.9368 63.011 31.4285L63.4978 23.184V23.1777ZM63.5642 18.7365C63.5034 18.0109 64.0123 17.1977 64.5988 17.0288C65.1188 16.8786 65.7052 17.3353 65.744 17.9483C65.7938 18.6364 65.2571 19.4621 64.6375 19.6372C64.1174 19.7874 63.6029 19.3495 63.5642 18.7365Z" fill="#D9D9D9"/>
<path d="M67.0235 30.2821L68.1641 16.4172C68.3098 14.5677 70.2931 14.5739 70.2424 16.1706L69.1082 30.0725C69.0195 31.0959 69.3173 32.0638 70.3945 31.7987C71.2499 31.5829 71.7759 30.7198 72.0293 29.4252C72.3081 27.9271 74.171 28.2354 73.9873 29.6286C73.7845 31.2623 72.6883 33.5803 70.4452 33.9441C68.1641 34.3201 66.8017 32.7666 67.0235 30.2821Z" fill="#D9D9D9"/>
<path d="M78.5406 35.4789C78.1989 39.5265 76.5838 41.4491 74.1425 41.9298C72.1484 42.3345 70.3221 40.9495 70.0488 38.8055C69.6761 35.9343 71.5024 34.233 73.3722 33.6259C74.8134 33.1705 75.2979 35.2576 73.9251 35.656C72.7696 35.9975 72.018 37.0284 72.0615 38.1225C72.1671 39.3241 73.0864 40.0325 74.1114 39.7668C75.4594 39.4127 76.2235 38.4261 76.5092 35.7003L76.9317 31.8297C74.6332 33.6575 72.0739 31.6716 72.2354 29.534L72.956 20.3636C73.0554 18.9153 75.0805 18.6181 74.9811 20.0727L74.3413 28.6296C74.2108 30.1285 74.9935 30.5965 75.6147 30.432C76.4533 30.2107 77.1056 29.5656 77.2174 27.9972L77.8883 19.3897C78.025 17.6125 80.1246 17.6188 79.9942 18.9596L78.5592 35.4852L78.5406 35.4789Z" fill="#D9D9D9"/>
<path d="M33 45H37V46.221H34.314V47.4421H36.7965V48.6631H34.314V51H33V45.0117V45Z" fill="#D9D9D9"/>
<path d="M39 45H41V51H39V45Z" fill="#D9D9D9"/>
<path d="M43.8064 46.1696H42V45H47V46.1696H45.1936V51H43.8002V46.1696H43.8064Z" fill="#D9D9D9"/>
<path d="M49.0062 45H50.8993L53.5879 49.1737H53.6064V45H55V51H53.1747L50.4121 46.7268H50.3936V51H49V45H49.0062Z" fill="#D9D9D9"/>
<path d="M58 45H61.8562V46.2222H59.2503V47.3392H61.7123V48.5614H59.2503V49.7778H62V51H58V45.0058V45Z" fill="#D9D9D9"/>
<path d="M67.1405 46.5556C67.0432 46.4278 66.9081 46.3333 66.7351 46.2722C66.5676 46.2111 66.4054 46.1778 66.2541 46.1778C66.1676 46.1778 66.0757 46.1889 65.9784 46.2111C65.8865 46.2333 65.7946 46.2667 65.7135 46.3111C65.627 46.3556 65.5622 46.4167 65.5081 46.4944C65.4541 46.5667 65.4324 46.6611 65.4324 46.7667C65.4324 46.9389 65.4973 47.0722 65.6216 47.1611C65.7459 47.25 65.9027 47.3278 66.0973 47.3944C66.2865 47.4611 66.4919 47.5222 66.7135 47.5889C66.9351 47.6556 67.1351 47.7444 67.3297 47.8611C67.5189 47.9778 67.6757 48.1389 67.8054 48.3333C67.9297 48.5333 67.9946 48.7944 67.9946 49.1278C67.9946 49.4611 67.9351 49.7222 67.8216 49.9556C67.7081 50.1889 67.5514 50.3889 67.3568 50.5444C67.1622 50.7 66.9351 50.8167 66.6757 50.8889C66.4162 50.9667 66.1459 51 65.8595 51C65.4973 51 65.1676 50.9444 64.8595 50.8333C64.5514 50.7222 64.2649 50.5389 64 50.2833L64.8703 49.3C64.9946 49.4722 65.1514 49.6056 65.3459 49.7C65.5405 49.7944 65.7351 49.8389 65.9351 49.8389C66.0324 49.8389 66.1351 49.8278 66.2378 49.8C66.3405 49.7778 66.4324 49.7389 66.5135 49.6889C66.5946 49.6389 66.6595 49.5778 66.7081 49.5056C66.7568 49.4333 66.7838 49.3444 66.7838 49.2389C66.7838 49.0667 66.7189 48.9333 66.5946 48.8333C66.4649 48.7333 66.3081 48.65 66.1135 48.5778C65.9189 48.5056 65.7135 48.4389 65.4865 48.3667C65.2595 48.3 65.0541 48.2056 64.8595 48.0833C64.6649 47.9667 64.5081 47.8111 64.3784 47.6167C64.2487 47.4222 64.1892 47.1667 64.1892 46.85C64.1892 46.5333 64.2486 46.2778 64.3676 46.0444C64.4865 45.8111 64.6432 45.6222 64.8378 45.4667C65.0324 45.3111 65.2595 45.1944 65.5135 45.1167C65.7676 45.0389 66.0324 45 66.3027 45C66.6162 45 66.9189 45.0444 67.2108 45.1389C67.5027 45.2333 67.7676 45.3833 68 45.6L67.1622 46.5389L67.1405 46.5556Z" fill="#D9D9D9"/>
<path d="M73.1405 46.5556C73.0432 46.4278 72.9081 46.3333 72.7351 46.2722C72.5676 46.2111 72.4054 46.1778 72.2541 46.1778C72.1676 46.1778 72.0757 46.1889 71.9784 46.2111C71.8865 46.2333 71.7946 46.2667 71.7135 46.3111C71.627 46.3556 71.5622 46.4167 71.5081 46.4944C71.4541 46.5667 71.4324 46.6611 71.4324 46.7667C71.4324 46.9389 71.4973 47.0722 71.6216 47.1611C71.7459 47.25 71.9027 47.3278 72.0973 47.3944C72.2865 47.4611 72.4919 47.5222 72.7135 47.5889C72.9351 47.6556 73.1351 47.7444 73.3297 47.8611C73.5189 47.9778 73.6757 48.1389 73.8054 48.3333C73.9297 48.5333 73.9946 48.7944 73.9946 49.1278C73.9946 49.4611 73.9351 49.7222 73.8216 49.9556C73.7081 50.1889 73.5514 50.3889 73.3568 50.5444C73.1622 50.7 72.9351 50.8167 72.6757 50.8889C72.4162 50.9667 72.1459 51 71.8595 51C71.4973 51 71.1676 50.9444 70.8595 50.8333C70.5513 50.7222 70.2649 50.5389 70 50.2833L70.8703 49.3C70.9946 49.4722 71.1514 49.6056 71.3459 49.7C71.5405 49.7944 71.7351 49.8389 71.9351 49.8389C72.0324 49.8389 72.1351 49.8278 72.2378 49.8C72.3405 49.7778 72.4324 49.7389 72.5135 49.6889C72.5946 49.6389 72.6595 49.5778 72.7081 49.5056C72.7568 49.4333 72.7838 49.3444 72.7838 49.2389C72.7838 49.0667 72.7189 48.9333 72.5946 48.8333C72.4649 48.7333 72.3081 48.65 72.1135 48.5778C71.9189 48.5056 71.7135 48.4389 71.4865 48.3667C71.2595 48.3 71.0541 48.2056 70.8595 48.0833C70.6649 47.9667 70.5081 47.8111 70.3784 47.6167C70.2486 47.4222 70.1892 47.1667 70.1892 46.85C70.1892 46.5333 70.2486 46.2778 70.3676 46.0444C70.4865 45.8111 70.6432 45.6222 70.8378 45.4667C71.0324 45.3111 71.2595 45.1944 71.5135 45.1167C71.7676 45.0389 72.0324 45 72.3027 45C72.6162 45 72.9189 45.0444 73.2108 45.1389C73.5027 45.2333 73.7676 45.3833 74 45.6L73.1622 46.5389L73.1405 46.5556Z" fill="#D9D9D9"/>
<path d="M53.0835 11.9758H52V11H55V11.9758H53.9165V16H53.0835V11.9758Z" fill="#D9D9D9"/>
<path d="M57 11H58.0171V12.8666H59.9891V11H61V16H59.9891V13.8369H58.0171V16H57V11Z" fill="#D9D9D9"/>
<path d="M62 11H64.891V12.0175H62.935V12.9474H64.782V13.965H62.935V14.9825H65V16H62V11Z" fill="#D9D9D9"/>
<path d="M40 56.5C40 56.2886 40.0409 56.0909 40.1159 55.9136C40.1977 55.7295 40.3 55.5727 40.4364 55.4364C40.5727 55.3 40.7295 55.1909 40.9136 55.1159C41.0977 55.0341 41.2886 55 41.5 55C41.7114 55 41.9023 55.0409 42.0864 55.1159C42.2705 55.1909 42.4273 55.3 42.5636 55.4364C42.7 55.5727 42.8091 55.7295 42.8841 55.9136C42.9659 56.0977 43 56.2886 43 56.5C43 56.7114 42.9591 56.9023 42.8841 57.0864C42.8023 57.2705 42.6932 57.4273 42.5636 57.5636C42.4273 57.7 42.2705 57.8091 42.0864 57.8841C41.9023 57.9659 41.7114 58 41.5 58C41.2886 58 41.0909 57.9591 40.9136 57.8841C40.7295 57.8023 40.5727 57.7 40.4364 57.5636C40.3 57.4273 40.1909 57.2705 40.1159 57.0864C40.0409 56.9023 40 56.7114 40 56.5Z" fill="white"/>
<path d="M45 54H46.7892C47.2243 54 47.6348 54.0452 48.027 54.1357C48.4191 54.2262 48.7561 54.3676 49.0502 54.5713C49.3382 54.7692 49.5711 55.0294 49.7426 55.3518C49.9142 55.6742 50 56.0588 50 56.517C50 56.9242 49.9142 57.2805 49.7488 57.586C49.5833 57.8914 49.3627 58.1516 49.0809 58.3609C48.799 58.5701 48.4743 58.7285 48.1127 58.836C47.7451 58.9434 47.3591 59 46.9547 59H45.0061V54H45ZM46.1887 57.9819H46.8076C47.0833 57.9819 47.3407 57.9536 47.5735 57.9027C47.8125 57.8518 48.0147 57.767 48.1863 57.6425C48.3578 57.5181 48.4988 57.3654 48.5968 57.1674C48.6949 56.9751 48.7439 56.7319 48.7439 56.4491C48.7439 56.2059 48.6949 55.9909 48.5968 55.81C48.4988 55.629 48.364 55.4819 48.1924 55.3631C48.0208 55.2443 47.8248 55.1595 47.598 55.0973C47.3713 55.0351 47.1324 55.0068 46.8811 55.0068H46.1765V57.9706L46.1887 57.9819Z" fill="white"/>
<path d="M53.4763 54H54.5172L57 59H55.5776L55.0862 57.9423H52.8685L52.3901 59H51L53.4698 54H53.4763ZM53.9612 55.4536L53.2694 57.009H54.6659L53.9612 55.4536Z" fill="white"/>
<path d="M58.9347 56.8676L57 54H58.4103L59.5 55.8722L60.6538 54H62L60.0653 56.8676V59H58.9289V56.8676H58.9347Z" fill="white"/>
<path d="M63 56.5C63 56.2886 63.0409 56.0909 63.1159 55.9136C63.1977 55.7295 63.3 55.5727 63.4364 55.4364C63.5727 55.3 63.7295 55.1909 63.9136 55.1159C64.0977 55.0341 64.2886 55 64.5 55C64.7114 55 64.9023 55.0409 65.0864 55.1159C65.2705 55.1909 65.4273 55.3 65.5636 55.4364C65.7 55.5727 65.8091 55.7295 65.8841 55.9136C65.9659 56.0977 66 56.2886 66 56.5C66 56.7114 65.9591 56.9023 65.8841 57.0864C65.8023 57.2705 65.6932 57.4273 65.5636 57.5636C65.4273 57.7 65.2705 57.8091 65.0864 57.8841C64.9023 57.9659 64.7114 58 64.5 58C64.2886 58 64.0909 57.9591 63.9136 57.8841C63.7295 57.8023 63.5727 57.7 63.4364 57.5636C63.3 57.4273 63.1909 57.2705 63.1159 57.0864C63.0409 56.9023 63 56.7114 63 56.5Z" fill="white"/>
</g>
<defs>
<clipPath id="clip0_216_10939">
<rect width="95" height="69" fill="white"/>
</clipPath>
</defs>
</svg>
